<?xml version="1.0" encoding="UTF-8"?>
<svg version="1.1" xmlns="http://www.w3.org/2000/svg" viewBox="0 0 50 50" width="24" height="24">
<path d="M0 0 C1 1 1 1 1.4375 3.5 C0.79965503 8.60275972 -1.80658712 12.04554013 -5 16 C-5.969375 16.721875 -6.93875 17.44375 -7.9375 18.1875 C-11.58364254 23.15951256 -9.74943966 29.13962758 -9 35 C-8.73471424 37.22739927 -8.48340994 39.45653522 -8.25 41.6875 C-8.13140625 42.64011719 -8.0128125 43.59273437 -7.890625 44.57421875 C-8 47 -8 47 -9.234375 48.83203125 C-11 50 -11 50 -15 50 C-16.98 44.72 -18.96 39.44 -21 34 C-23.80217921 34 -24.55495936 35.15554594 -26.5625 37.0625 C-29.99644045 40.5531998 -30.709527 43.06195899 -31 48 C-31.66 48.66 -32.32 49.32 -33 50 C-34.32 50 -35.64 50 -37 50 C-37.66 46.7 -38.32 43.4 -39 40 C-42.3 39.34 -45.6 38.68 -49 38 C-48 34 -48 34 -46 32 C-44.948125 31.773125 -43.89625 31.54625 -42.8125 31.3125 C-37.89825612 30.06329095 -35.32772039 26.6672837 -32 23 C-37.61 20.69 -43.22 18.38 -49 16 C-48 11 -48 11 -46 9 C-43.671875 8.98828125 -43.671875 8.98828125 -40.75 9.3125 C-39.67878906 9.41175781 -38.60757813 9.51101563 -37.50390625 9.61328125 C-35.11039526 9.87744801 -32.72182154 10.18961239 -30.33984375 10.54296875 C-23.82473873 11.60098999 -23.82473873 11.60098999 -17.8046875 9.64453125 C-16.03820421 7.84067094 -16.03820421 7.84067094 -14.5078125 5.859375 C-10.78051646 1.2630203 -5.90160458 -0.70257197 0 0 Z M-8.875 5.6875 C-9.58527344 6.23019531 -10.29554687 6.77289063 -11.02734375 7.33203125 C-13.20127465 9.07720656 -13.20127465 9.07720656 -15.4375 11.875 C-18.4206932 14.34886753 -20.22718305 14.52310981 -24.04296875 14.30859375 C-30.70573047 13.61327251 -37.35564627 12.85438303 -44 12 C-44.33 12.66 -44.66 13.32 -45 14 C-42.56495491 15.0063655 -40.12729136 16.00526413 -37.6875 17 C-36.99720703 17.28617188 -36.30691406 17.57234375 -35.59570312 17.8671875 C-32.58454326 19.08910744 -30.28113016 20 -27 20 C-28.95780505 25.69452942 -32.33819622 29.27557867 -37 33 C-39.42233142 34.1134544 -41.3466162 34.55776937 -44 35 C-41.01121121 37.23543548 -41.01121121 37.23543548 -37 38 C-36.34 40.64 -35.68 43.28 -35 46 C-34.01 45.505 -34.01 45.505 -33 45 C-32.979375 44.01 -32.95875 43.02 -32.9375 42 C-32.39356254 36.95811816 -28.79376291 34.2038349 -25.32421875 30.8203125 C-23.09522271 29.07457779 -21.76293243 28.39199499 -19 28 C-18.88785156 28.68449219 -18.77570312 29.36898438 -18.66015625 30.07421875 C-17.89228607 33.47738305 -16.71586052 36.56743098 -15.4375 39.8125 C-14.75494141 41.55466797 -14.75494141 41.55466797 -14.05859375 43.33203125 C-13.70925781 44.21246094 -13.35992187 45.09289063 -13 46 C-12.34 45.67 -11.68 45.34 -11 45 C-11.144375 43.87722656 -11.28875 42.75445312 -11.4375 41.59765625 C-11.92240555 37.75574528 -12.35677483 33.90995809 -12.76855469 30.05957031 C-12.95294009 28.41877362 -13.17679846 26.78242573 -13.4140625 25.1484375 C-13.7384222 21.74866732 -13.44215234 19.5611539 -11.31640625 16.86328125 C-9.90824632 15.46545643 -8.46242326 14.1044892 -6.98046875 12.78515625 C-4.71967262 10.74731832 -3.2657973 8.7689316 -2 6 C-2 5.01 -2 4.02 -2 3 C-5.49461413 3 -6.18146069 3.60708151 -8.875 5.6875 Z " fill="#FF002D" transform="translate(49,0)"/>
</svg>
