<?xml version="1.0" encoding="UTF-8"?>
<svg xmlns="http://www.w3.org/2000/svg" xmlns:xlink="http://www.w3.org/1999/xlink" width="30px" height="30px" viewBox="0 0 30 30" version="1.1">
<g id="surface1">
<path style=" stroke:none;fill-rule:nonzero;fill:rgb(100%,0%,17.647059%);fill-opacity:1;" d="M 16.863281 5.714844 C 18.167969 6.636719 18.554688 8.953125 19.03125 10.394531 C 19.230469 11 19.441406 11.597656 19.6875 12.1875 C 19.671875 11.980469 19.65625 11.773438 19.640625 11.570312 C 19.632812 11.46875 19.632812 11.46875 19.625 11.371094 C 19.597656 11.007812 19.5625 10.648438 19.523438 10.285156 C 19.4375 9.488281 19.375 8.695312 19.371094 7.890625 C 19.371094 7.832031 19.371094 7.832031 19.371094 7.773438 C 19.367188 7.148438 19.398438 6.601562 19.824219 6.117188 C 20.089844 5.898438 20.375 5.890625 20.703125 5.898438 C 21.0625 5.941406 21.300781 6.210938 21.519531 6.476562 C 22.359375 7.6875 22.582031 9.480469 22.933594 10.890625 C 22.996094 11.148438 23.0625 11.40625 23.128906 11.664062 C 23.140625 11.714844 23.152344 11.765625 23.164062 11.816406 C 23.273438 12.25 23.382812 12.679688 23.492188 13.113281 C 23.53125 13.265625 23.570312 13.414062 23.605469 13.566406 C 23.804688 14.363281 24.074219 15.105469 24.402344 15.855469 C 24.445312 15.964844 24.492188 16.074219 24.539062 16.183594 C 24.632812 16.402344 24.726562 16.625 24.824219 16.84375 C 25.015625 17.292969 25.203125 17.742188 25.390625 18.191406 C 25.445312 18.320312 25.5 18.449219 25.554688 18.578125 C 26.089844 19.847656 26.371094 21.078125 26.492188 22.449219 C 26.503906 22.597656 26.519531 22.75 26.535156 22.898438 C 26.542969 22.992188 26.550781 23.082031 26.558594 23.175781 C 26.613281 23.832031 26.613281 23.832031 26.957031 24.367188 C 27.148438 24.566406 27.328125 24.761719 27.5 24.976562 C 27.699219 25.222656 27.90625 25.46875 28.113281 25.710938 C 28.144531 25.746094 28.171875 25.78125 28.203125 25.816406 C 28.355469 25.996094 28.511719 26.171875 28.664062 26.351562 C 28.8125 26.523438 28.960938 26.691406 29.105469 26.867188 C 29.171875 26.941406 29.234375 27.015625 29.300781 27.09375 C 29.460938 27.28125 29.550781 27.421875 29.566406 27.671875 C 29.53125 27.890625 29.53125 27.890625 29.445312 28.035156 C 29.277344 28.136719 29.140625 28.15625 28.949219 28.160156 C 28.761719 28.105469 28.667969 27.976562 28.535156 27.832031 C 28.488281 27.785156 28.445312 27.734375 28.398438 27.683594 C 28.109375 27.371094 27.835938 27.050781 27.566406 26.71875 C 27.394531 26.511719 27.21875 26.308594 27.039062 26.101562 C 26.773438 25.792969 26.503906 25.484375 26.25 25.164062 C 26.175781 25.070312 26.097656 24.980469 26.015625 24.894531 C 25.496094 24.3125 25.515625 23.410156 25.449219 22.664062 C 25.359375 21.671875 25.359375 21.671875 25.171875 20.691406 C 25.164062 20.648438 25.152344 20.605469 25.144531 20.5625 C 24.925781 19.742188 24.5625 18.949219 24.230469 18.167969 C 24.160156 18.003906 24.089844 17.835938 24.023438 17.671875 C 23.832031 17.222656 23.644531 16.769531 23.453125 16.324219 C 23.402344 16.210938 23.355469 16.097656 23.308594 15.988281 C 23.253906 15.859375 23.199219 15.730469 23.144531 15.605469 C 22.550781 14.203125 22.273438 12.644531 21.914062 11.167969 C 21.683594 10.230469 21.449219 9.296875 21.171875 8.375 C 21.140625 8.273438 21.140625 8.273438 21.109375 8.167969 C 20.976562 7.746094 20.8125 7.34375 20.566406 6.972656 C 20.527344 6.953125 20.488281 6.933594 20.449219 6.914062 C 20.40625 8.0625 20.476562 9.179688 20.59375 10.324219 C 20.773438 12.023438 20.773438 12.023438 20.773438 12.847656 C 20.777344 12.910156 20.777344 12.976562 20.777344 13.042969 C 20.773438 13.472656 20.691406 13.785156 20.410156 14.121094 C 20.183594 14.21875 19.984375 14.226562 19.746094 14.179688 C 19.179688 13.9375 18.882812 13.078125 18.664062 12.550781 C 18.257812 11.519531 17.914062 10.460938 17.574219 9.40625 C 17.382812 8.820312 17.183594 8.242188 16.953125 7.671875 C 16.929688 7.621094 16.910156 7.566406 16.890625 7.515625 C 16.761719 7.203125 16.613281 6.945312 16.40625 6.679688 C 16.246094 6.738281 16.183594 6.773438 16.105469 6.929688 C 15.945312 7.441406 16.164062 8.042969 16.3125 8.535156 C 16.320312 8.574219 16.332031 8.609375 16.34375 8.644531 C 16.652344 9.699219 17.011719 10.734375 17.363281 11.769531 C 18.097656 13.941406 18.097656 13.941406 17.988281 14.707031 C 17.898438 14.890625 17.796875 15.046875 17.636719 15.175781 C 17.375 15.261719 17.160156 15.253906 16.90625 15.152344 C 15.957031 14.507812 15.429688 13.34375 14.875 12.375 C 14.765625 12.1875 14.660156 12.003906 14.550781 11.816406 C 14.25 11.292969 13.945312 10.769531 13.648438 10.246094 C 13.289062 9.613281 12.929688 8.980469 12.558594 8.351562 C 12.53125 8.304688 12.503906 8.257812 12.472656 8.210938 C 12.324219 7.957031 12.171875 7.757812 11.953125 7.558594 C 11.828125 7.617188 11.828125 7.617188 11.71875 7.734375 C 11.628906 8.808594 12.628906 10.160156 13.152344 11.046875 C 15.496094 15.023438 15.496094 15.023438 15.410156 16.230469 C 15.308594 16.453125 15.226562 16.550781 15 16.640625 C 14.597656 16.699219 14.277344 16.640625 13.945312 16.40625 C 13.511719 16.070312 13.121094 15.71875 12.773438 15.292969 C 12.722656 15.230469 12.667969 15.171875 12.617188 15.109375 C 12.316406 14.765625 12.023438 14.417969 11.746094 14.054688 C 11.488281 13.722656 11.214844 13.414062 10.925781 13.105469 C 10.804688 12.972656 10.683594 12.835938 10.570312 12.695312 C 10.359375 12.453125 10.113281 12.246094 9.84375 12.070312 C 9.804688 12.070312 9.765625 12.070312 9.726562 12.070312 C 9.621094 12.5625 9.820312 12.894531 10.078125 13.300781 C 10.28125 13.597656 10.507812 13.878906 10.730469 14.15625 C 10.925781 14.40625 11.121094 14.664062 11.3125 14.914062 C 11.351562 14.96875 11.390625 15.019531 11.433594 15.074219 C 12.027344 15.855469 12.617188 16.644531 13.199219 17.441406 C 13.296875 17.574219 13.394531 17.707031 13.492188 17.839844 C 15.542969 20.621094 15.542969 20.621094 15.410156 21.679688 C 15.289062 21.917969 15.191406 22.050781 14.941406 22.148438 C 14.476562 22.207031 14.117188 22.144531 13.710938 21.914062 C 13.660156 21.886719 13.609375 21.859375 13.558594 21.832031 C 13.140625 21.601562 12.757812 21.328125 12.371094 21.046875 C 10.96875 19.878906 10.96875 19.878906 9.316406 19.394531 C 9.140625 19.480469 9.140625 19.480469 9.023438 19.628906 C 8.984375 19.796875 8.984375 19.796875 9.023438 19.980469 C 9.140625 20.097656 9.242188 20.183594 9.375 20.277344 C 9.449219 20.332031 9.527344 20.390625 9.601562 20.445312 C 9.640625 20.472656 9.679688 20.503906 9.722656 20.535156 C 9.925781 20.6875 10.125 20.851562 10.324219 21.011719 C 10.402344 21.078125 10.480469 21.144531 10.5625 21.207031 C 10.597656 21.238281 10.636719 21.269531 10.675781 21.300781 C 10.769531 21.378906 10.863281 21.453125 10.960938 21.53125 C 11.304688 21.808594 11.632812 22.101562 11.960938 22.402344 C 12.109375 22.539062 12.257812 22.671875 12.40625 22.808594 C 12.585938 22.964844 12.757812 23.128906 12.929688 23.292969 C 13.394531 23.734375 13.863281 24.148438 14.375 24.535156 C 14.46875 24.609375 14.5625 24.683594 14.65625 24.757812 C 15.851562 25.710938 17.179688 26.320312 18.632812 26.777344 C 18.882812 26.855469 19.132812 26.9375 19.382812 27.019531 C 19.441406 27.039062 19.5 27.054688 19.558594 27.074219 C 20.417969 27.355469 20.417969 27.355469 20.648438 27.753906 C 20.6875 27.832031 20.726562 27.914062 20.761719 27.992188 C 20.78125 28.035156 20.800781 28.078125 20.820312 28.121094 C 21.222656 28.996094 21.222656 28.996094 21.09375 29.355469 C 20.988281 29.480469 20.910156 29.523438 20.746094 29.550781 C 20.4375 29.566406 20.4375 29.566406 20.273438 29.441406 C 20.121094 29.25 20.039062 29.050781 19.949219 28.824219 C 19.914062 28.742188 19.878906 28.65625 19.84375 28.574219 C 19.828125 28.535156 19.816406 28.5 19.800781 28.460938 C 19.703125 28.273438 19.609375 28.199219 19.410156 28.121094 C 19.316406 28.09375 19.316406 28.09375 19.21875 28.066406 C 19.113281 28.035156 19.113281 28.035156 19.007812 28 C 18.96875 27.992188 18.933594 27.980469 18.894531 27.96875 C 18.699219 27.910156 18.507812 27.851562 18.3125 27.792969 C 18.273438 27.78125 18.234375 27.769531 18.195312 27.757812 C 16.160156 27.132812 14.386719 26.066406 12.832031 24.609375 C 12.757812 24.546875 12.6875 24.480469 12.613281 24.417969 C 12.382812 24.21875 12.164062 24.015625 11.941406 23.808594 C 11.886719 23.753906 11.886719 23.753906 11.828125 23.699219 C 11.679688 23.558594 11.527344 23.421875 11.378906 23.28125 C 10.671875 22.617188 9.921875 22.023438 9.15625 21.429688 C 9.0625 21.359375 8.972656 21.285156 8.878906 21.214844 C 8.832031 21.179688 8.785156 21.140625 8.738281 21.105469 C 8.695312 21.070312 8.652344 21.039062 8.609375 21.003906 C 8.519531 20.9375 8.429688 20.875 8.335938 20.8125 C 8.078125 20.5625 7.933594 20.246094 7.878906 19.894531 C 7.964844 19.335938 8.15625 18.921875 8.613281 18.574219 C 8.984375 18.332031 9.347656 18.28125 9.785156 18.339844 C 10.824219 18.570312 11.695312 19.253906 12.539062 19.863281 C 12.714844 19.988281 12.894531 20.113281 13.070312 20.242188 C 13.109375 20.269531 13.152344 20.296875 13.191406 20.328125 C 13.515625 20.554688 13.84375 20.769531 14.179688 20.976562 C 14.140625 20.742188 14.023438 20.558594 13.902344 20.359375 C 13.867188 20.300781 13.867188 20.300781 13.832031 20.242188 C 13.050781 18.972656 12.140625 17.78125 11.234375 16.597656 C 11.070312 16.382812 10.910156 16.167969 10.75 15.953125 C 10.628906 15.792969 10.511719 15.636719 10.390625 15.480469 C 8.53125 13.0625 8.53125 13.0625 8.613281 12.011719 C 8.683594 11.578125 8.96875 11.324219 9.316406 11.074219 C 9.664062 10.957031 9.972656 10.976562 10.308594 11.128906 C 10.648438 11.316406 10.917969 11.566406 11.191406 11.835938 C 11.265625 11.90625 11.265625 11.90625 11.339844 11.976562 C 11.636719 12.265625 11.90625 12.570312 12.167969 12.894531 C 12.316406 13.082031 12.472656 13.265625 12.625 13.445312 C 12.828125 13.683594 13.023438 13.921875 13.21875 14.160156 C 13.472656 14.46875 13.734375 14.765625 14.003906 15.058594 C 13.8125 14.53125 13.558594 14.035156 13.300781 13.535156 C 13.277344 13.488281 13.25 13.441406 13.226562 13.390625 C 12.945312 12.839844 12.65625 12.292969 12.339844 11.757812 C 11.789062 10.816406 11.238281 9.867188 10.839844 8.847656 C 10.820312 8.792969 10.796875 8.742188 10.777344 8.683594 C 10.628906 8.261719 10.566406 7.761719 10.734375 7.332031 C 10.984375 6.898438 11.242188 6.671875 11.71875 6.503906 C 12.066406 6.445312 12.292969 6.503906 12.597656 6.679688 C 13.148438 7.140625 13.476562 7.828125 13.828125 8.4375 C 13.898438 8.554688 13.964844 8.675781 14.035156 8.792969 C 14.382812 9.394531 14.730469 10 15.074219 10.601562 C 15.617188 11.554688 16.160156 12.5 16.757812 13.417969 C 16.578125 12.796875 16.386719 12.175781 16.179688 11.5625 C 16.148438 11.472656 16.148438 11.472656 16.121094 11.386719 C 16.039062 11.144531 15.957031 10.90625 15.875 10.667969 C 14.730469 7.300781 14.730469 7.300781 15.175781 6.328125 C 15.558594 5.753906 16.179688 5.367188 16.863281 5.714844 Z M 16.863281 5.714844 "/>
<path style=" stroke:none;fill-rule:nonzero;fill:rgb(100%,0%,17.647059%);fill-opacity:1;" d="M 21.796875 0.46875 C 21.933594 0.566406 21.996094 0.628906 22.089844 0.761719 C 22.121094 0.804688 22.152344 0.847656 22.183594 0.890625 C 22.679688 1.628906 23.019531 2.472656 23.296875 3.3125 C 23.3125 3.359375 23.328125 3.402344 23.34375 3.445312 C 24.082031 5.695312 24.558594 8.039062 25.0625 10.351562 C 25.347656 11.644531 25.636719 12.941406 26.0625 14.199219 C 26.085938 14.269531 26.113281 14.34375 26.136719 14.417969 C 26.636719 15.878906 27.351562 17.078125 28.300781 18.28125 C 28.546875 18.59375 28.789062 18.90625 29.035156 19.222656 C 29.109375 19.320312 29.1875 19.417969 29.265625 19.515625 C 29.449219 19.757812 29.601562 19.960938 29.566406 20.273438 C 29.417969 20.757812 28.992188 21.144531 28.652344 21.503906 C 28.601562 21.554688 28.554688 21.609375 28.503906 21.664062 C 27.996094 22.1875 27.996094 22.1875 27.65625 22.324219 C 27.441406 22.324219 27.339844 22.289062 27.164062 22.171875 C 27.027344 21.96875 27.027344 21.863281 27.070312 21.621094 C 27.269531 21.3125 27.554688 21.082031 27.832031 20.847656 C 27.957031 20.734375 28.074219 20.621094 28.1875 20.496094 C 28.222656 20.460938 28.257812 20.421875 28.292969 20.382812 C 28.371094 20.28125 28.371094 20.28125 28.355469 20.164062 C 28.277344 19.992188 28.171875 19.859375 28.054688 19.710938 C 28.03125 19.675781 28.003906 19.644531 27.976562 19.609375 C 27.890625 19.5 27.804688 19.386719 27.714844 19.277344 C 26.5625 17.820312 25.675781 16.359375 25.078125 14.589844 C 25.058594 14.535156 25.039062 14.476562 25.019531 14.417969 C 24.433594 12.691406 24.085938 10.882812 23.6875 9.105469 C 23.054688 5.183594 23.054688 5.183594 21.386719 1.699219 C 21.335938 1.730469 21.285156 1.765625 21.230469 1.796875 C 19.3125 3 17.113281 3.402344 14.925781 3.832031 C 11.855469 4.4375 9.699219 5.453125 7.238281 7.375 C 6.84375 7.6875 6.445312 7.988281 6.042969 8.289062 C 5.910156 8.382812 5.78125 8.484375 5.648438 8.582031 C 4.34375 9.554688 2.992188 10.429688 1.523438 11.132812 C 1.941406 13.089844 3.132812 14.664062 4.273438 16.269531 C 4.902344 17.160156 5.523438 18.054688 6.09375 18.984375 C 6.136719 19.054688 6.183594 19.128906 6.226562 19.199219 C 8.328125 22.605469 8.328125 22.605469 8.203125 23.671875 C 8.089844 23.835938 8.011719 23.890625 7.824219 23.957031 C 7.640625 23.964844 7.542969 23.9375 7.382812 23.847656 C 7.183594 23.636719 7.105469 23.371094 7.003906 23.105469 C 6.113281 20.8125 4.757812 18.785156 3.339844 16.789062 C 0.476562 12.75 0.476562 12.75 0.441406 10.710938 C 0.476562 10.496094 0.527344 10.441406 0.703125 10.3125 C 0.875 10.222656 1.054688 10.148438 1.234375 10.074219 C 3.273438 9.1875 5.027344 7.726562 6.777344 6.382812 C 8.820312 4.816406 8.820312 4.816406 9.785156 4.277344 C 9.84375 4.242188 9.90625 4.207031 9.964844 4.171875 C 10.410156 3.929688 10.875 3.761719 11.351562 3.601562 C 11.410156 3.578125 11.472656 3.558594 11.53125 3.539062 C 12.828125 3.109375 14.191406 2.886719 15.527344 2.628906 C 16.277344 2.488281 17.019531 2.332031 17.757812 2.132812 C 17.847656 2.109375 17.847656 2.109375 17.941406 2.082031 C 19.03125 1.78125 20.085938 1.324219 21.007812 0.671875 C 21.292969 0.476562 21.453125 0.390625 21.796875 0.46875 Z M 21.796875 0.46875 "/>
<path style=" stroke:none;fill-rule:nonzero;fill:rgb(100%,0%,17.647059%);fill-opacity:1;" d="M 4.332031 21.535156 C 4.511719 21.574219 4.570312 21.660156 4.6875 21.796875 C 4.757812 21.945312 4.820312 22.089844 4.878906 22.246094 C 4.914062 22.332031 4.949219 22.421875 4.984375 22.511719 C 5.035156 22.648438 5.089844 22.789062 5.144531 22.929688 C 5.195312 23.0625 5.25 23.199219 5.300781 23.332031 C 5.316406 23.375 5.332031 23.414062 5.347656 23.457031 C 5.496094 23.824219 5.71875 24.027344 6.082031 24.1875 C 6.160156 24.21875 6.242188 24.253906 6.324219 24.285156 C 6.367188 24.300781 6.414062 24.320312 6.457031 24.335938 C 6.59375 24.390625 6.730469 24.445312 6.871094 24.5 C 7.007812 24.554688 7.148438 24.609375 7.285156 24.664062 C 7.371094 24.699219 7.457031 24.730469 7.542969 24.765625 C 7.75 24.847656 7.839844 24.886719 7.96875 25.078125 C 8.007812 25.496094 8.007812 25.496094 7.878906 25.660156 C 7.699219 25.8125 7.503906 25.890625 7.285156 25.972656 C 7.199219 26.007812 7.109375 26.042969 7.019531 26.078125 C 6.882812 26.128906 6.742188 26.183594 6.601562 26.238281 C 6.46875 26.289062 6.332031 26.34375 6.199219 26.394531 C 6.15625 26.410156 6.117188 26.425781 6.074219 26.441406 C 5.707031 26.589844 5.503906 26.8125 5.34375 27.175781 C 5.3125 27.253906 5.277344 27.335938 5.246094 27.417969 C 5.230469 27.460938 5.210938 27.507812 5.195312 27.550781 C 5.140625 27.6875 5.085938 27.824219 5.03125 27.964844 C 4.976562 28.101562 4.921875 28.242188 4.867188 28.378906 C 4.832031 28.464844 4.800781 28.550781 4.765625 28.636719 C 4.683594 28.84375 4.644531 28.933594 4.453125 29.0625 C 4.035156 29.101562 4.035156 29.101562 3.871094 28.972656 C 3.71875 28.792969 3.640625 28.597656 3.558594 28.378906 C 3.523438 28.292969 3.488281 28.203125 3.453125 28.113281 C 3.402344 27.976562 3.347656 27.835938 3.292969 27.695312 C 3.242188 27.5625 3.1875 27.425781 3.136719 27.292969 C 3.121094 27.25 3.105469 27.210938 3.089844 27.167969 C 2.941406 26.800781 2.71875 26.597656 2.355469 26.4375 C 2.277344 26.40625 2.195312 26.371094 2.113281 26.339844 C 2.070312 26.324219 2.023438 26.304688 1.980469 26.289062 C 1.84375 26.234375 1.707031 26.179688 1.566406 26.125 C 1.429688 26.070312 1.289062 26.015625 1.152344 25.960938 C 1.066406 25.925781 0.980469 25.894531 0.894531 25.859375 C 0.6875 25.777344 0.597656 25.738281 0.46875 25.546875 C 0.429688 25.128906 0.429688 25.128906 0.558594 24.964844 C 0.738281 24.8125 0.933594 24.734375 1.152344 24.652344 C 1.238281 24.617188 1.328125 24.582031 1.417969 24.546875 C 1.554688 24.496094 1.695312 24.441406 1.835938 24.386719 C 1.96875 24.335938 2.105469 24.28125 2.238281 24.230469 C 2.28125 24.214844 2.320312 24.199219 2.363281 24.183594 C 2.730469 24.035156 2.933594 23.8125 3.09375 23.449219 C 3.125 23.371094 3.160156 23.289062 3.191406 23.207031 C 3.207031 23.164062 3.226562 23.117188 3.242188 23.074219 C 3.296875 22.9375 3.351562 22.800781 3.40625 22.660156 C 3.460938 22.523438 3.515625 22.382812 3.570312 22.246094 C 3.605469 22.160156 3.636719 22.074219 3.671875 21.988281 C 3.816406 21.621094 3.941406 21.550781 4.332031 21.535156 Z M 4.160156 23.4375 C 4.121094 23.53125 4.121094 23.53125 4.082031 23.628906 C 4.046875 23.714844 4.007812 23.800781 3.972656 23.882812 C 3.949219 23.945312 3.949219 23.945312 3.921875 24.011719 C 3.648438 24.648438 3.230469 24.902344 2.605469 25.15625 C 2.515625 25.1875 2.429688 25.222656 2.34375 25.253906 C 2.34375 25.292969 2.34375 25.332031 2.34375 25.371094 C 2.394531 25.386719 2.441406 25.402344 2.492188 25.421875 C 3.246094 25.691406 3.613281 25.964844 3.957031 26.683594 C 4.03125 26.851562 4.101562 27.015625 4.160156 27.1875 C 4.199219 27.1875 4.238281 27.1875 4.277344 27.1875 C 4.292969 27.136719 4.308594 27.089844 4.328125 27.039062 C 4.542969 26.4375 4.777344 25.960938 5.367188 25.667969 C 5.605469 25.5625 5.847656 25.464844 6.09375 25.371094 C 6.09375 25.332031 6.09375 25.292969 6.09375 25.253906 C 6.042969 25.238281 5.996094 25.222656 5.945312 25.203125 C 5.34375 24.988281 4.867188 24.753906 4.574219 24.164062 C 4.46875 23.925781 4.371094 23.683594 4.277344 23.4375 C 4.238281 23.4375 4.199219 23.4375 4.160156 23.4375 Z M 4.160156 23.4375 "/>
<path style=" stroke:none;fill-rule:nonzero;fill:rgb(100%,0%,18.039216%);fill-opacity:1;" d="M 3.863281 0.441406 C 4.039062 0.480469 4.101562 0.566406 4.21875 0.703125 C 4.304688 0.882812 4.304688 0.882812 4.386719 1.089844 C 4.414062 1.164062 4.445312 1.242188 4.476562 1.316406 C 4.519531 1.433594 4.566406 1.554688 4.613281 1.671875 C 4.65625 1.785156 4.703125 1.902344 4.746094 2.015625 C 4.773438 2.085938 4.800781 2.152344 4.828125 2.222656 C 5.003906 2.558594 5.269531 2.671875 5.609375 2.808594 C 5.648438 2.820312 5.683594 2.835938 5.722656 2.851562 C 5.878906 2.914062 6.039062 2.976562 6.195312 3.039062 C 6.3125 3.085938 6.425781 3.128906 6.542969 3.175781 C 6.609375 3.203125 6.679688 3.230469 6.75 3.257812 C 6.914062 3.339844 6.914062 3.339844 7.03125 3.515625 C 7.0625 3.84375 7.0625 3.84375 7.03125 3.984375 C 6.851562 4.199219 6.671875 4.285156 6.410156 4.386719 C 6.335938 4.414062 6.257812 4.445312 6.183594 4.476562 C 6.066406 4.519531 5.945312 4.566406 5.828125 4.613281 C 5.714844 4.65625 5.597656 4.703125 5.484375 4.746094 C 5.414062 4.773438 5.347656 4.800781 5.277344 4.828125 C 4.941406 5.003906 4.828125 5.269531 4.691406 5.609375 C 4.679688 5.648438 4.664062 5.683594 4.648438 5.722656 C 4.585938 5.878906 4.523438 6.039062 4.460938 6.195312 C 4.414062 6.3125 4.371094 6.425781 4.324219 6.542969 C 4.296875 6.609375 4.269531 6.679688 4.242188 6.75 C 4.160156 6.914062 4.160156 6.914062 3.984375 7.03125 C 3.65625 7.0625 3.65625 7.0625 3.515625 7.03125 C 3.300781 6.851562 3.214844 6.671875 3.113281 6.410156 C 3.085938 6.335938 3.054688 6.257812 3.023438 6.183594 C 2.980469 6.066406 2.933594 5.945312 2.886719 5.828125 C 2.84375 5.714844 2.796875 5.597656 2.753906 5.484375 C 2.726562 5.414062 2.699219 5.347656 2.671875 5.277344 C 2.496094 4.941406 2.230469 4.828125 1.890625 4.691406 C 1.851562 4.679688 1.816406 4.664062 1.777344 4.648438 C 1.621094 4.585938 1.460938 4.523438 1.304688 4.460938 C 1.1875 4.414062 1.074219 4.371094 0.957031 4.324219 C 0.855469 4.28125 0.855469 4.28125 0.75 4.242188 C 0.585938 4.160156 0.585938 4.160156 0.46875 3.984375 C 0.4375 3.65625 0.4375 3.65625 0.46875 3.515625 C 0.648438 3.300781 0.828125 3.214844 1.089844 3.113281 C 1.164062 3.085938 1.242188 3.054688 1.316406 3.023438 C 1.433594 2.980469 1.554688 2.933594 1.671875 2.886719 C 1.785156 2.84375 1.902344 2.796875 2.015625 2.753906 C 2.085938 2.726562 2.152344 2.699219 2.222656 2.671875 C 2.558594 2.496094 2.671875 2.230469 2.808594 1.890625 C 2.820312 1.851562 2.835938 1.816406 2.851562 1.777344 C 2.914062 1.621094 2.976562 1.460938 3.039062 1.304688 C 3.085938 1.1875 3.128906 1.074219 3.175781 0.957031 C 3.21875 0.855469 3.21875 0.855469 3.257812 0.75 C 3.398438 0.464844 3.566406 0.453125 3.863281 0.441406 Z M 3.691406 2.34375 C 3.679688 2.378906 3.664062 2.410156 3.652344 2.445312 C 3.378906 3.089844 3.101562 3.375 2.457031 3.652344 C 2.402344 3.671875 2.402344 3.671875 2.34375 3.691406 C 2.34375 3.730469 2.34375 3.769531 2.34375 3.808594 C 2.378906 3.820312 2.410156 3.835938 2.445312 3.847656 C 3.089844 4.121094 3.375 4.398438 3.652344 5.042969 C 3.671875 5.097656 3.671875 5.097656 3.691406 5.15625 C 3.730469 5.15625 3.769531 5.15625 3.808594 5.15625 C 3.820312 5.121094 3.835938 5.089844 3.847656 5.054688 C 4.121094 4.410156 4.398438 4.125 5.042969 3.847656 C 5.082031 3.835938 5.117188 3.824219 5.15625 3.808594 C 5.15625 3.769531 5.15625 3.730469 5.15625 3.691406 C 5.121094 3.679688 5.089844 3.664062 5.054688 3.652344 C 4.410156 3.378906 4.125 3.101562 3.847656 2.457031 C 3.835938 2.417969 3.824219 2.382812 3.808594 2.34375 C 3.769531 2.34375 3.730469 2.34375 3.691406 2.34375 Z M 3.691406 2.34375 "/>
<path style=" stroke:none;fill-rule:nonzero;fill:rgb(100%,0%,17.647059%);fill-opacity:1;" d="M 26.832031 0.441406 C 27.007812 0.480469 27.070312 0.570312 27.1875 0.703125 C 27.261719 0.855469 27.261719 0.855469 27.328125 1.023438 C 27.363281 1.117188 27.363281 1.117188 27.398438 1.210938 C 27.449219 1.339844 27.496094 1.472656 27.546875 1.601562 C 27.726562 2.066406 27.726562 2.066406 28.125 2.34375 C 28.402344 2.460938 28.679688 2.570312 28.960938 2.679688 C 29.019531 2.703125 29.074219 2.722656 29.132812 2.746094 C 29.183594 2.765625 29.234375 2.785156 29.289062 2.804688 C 29.414062 2.871094 29.414062 2.871094 29.53125 3.046875 C 29.5625 3.375 29.5625 3.375 29.53125 3.515625 C 29.363281 3.710938 29.210938 3.800781 28.976562 3.890625 C 28.914062 3.914062 28.851562 3.9375 28.789062 3.960938 C 28.660156 4.011719 28.527344 4.058594 28.398438 4.109375 C 27.933594 4.289062 27.933594 4.289062 27.65625 4.6875 C 27.539062 4.964844 27.429688 5.242188 27.320312 5.523438 C 27.296875 5.582031 27.277344 5.636719 27.253906 5.695312 C 27.234375 5.746094 27.214844 5.796875 27.195312 5.851562 C 27.128906 5.976562 27.128906 5.976562 26.953125 6.09375 C 26.625 6.125 26.625 6.125 26.484375 6.09375 C 26.289062 5.925781 26.199219 5.773438 26.109375 5.539062 C 26.085938 5.476562 26.0625 5.414062 26.039062 5.351562 C 25.988281 5.222656 25.941406 5.089844 25.890625 4.960938 C 25.710938 4.496094 25.710938 4.496094 25.3125 4.21875 C 25.035156 4.101562 24.757812 3.992188 24.476562 3.882812 C 24.417969 3.859375 24.363281 3.839844 24.304688 3.816406 C 24.253906 3.796875 24.203125 3.777344 24.148438 3.757812 C 24.023438 3.691406 24.023438 3.691406 23.90625 3.515625 C 23.875 3.1875 23.875 3.1875 23.90625 3.046875 C 24.074219 2.851562 24.226562 2.761719 24.460938 2.671875 C 24.554688 2.636719 24.554688 2.636719 24.648438 2.601562 C 24.777344 2.550781 24.910156 2.503906 25.039062 2.453125 C 25.503906 2.273438 25.503906 2.273438 25.78125 1.875 C 25.898438 1.597656 26.007812 1.320312 26.117188 1.039062 C 26.140625 0.980469 26.160156 0.925781 26.183594 0.867188 C 26.203125 0.816406 26.222656 0.765625 26.242188 0.710938 C 26.378906 0.453125 26.566406 0.453125 26.832031 0.441406 Z M 26.660156 2.34375 C 26.636719 2.394531 26.613281 2.449219 26.585938 2.5 C 26.382812 2.890625 26.175781 3.050781 25.78125 3.222656 C 25.78125 3.261719 25.78125 3.300781 25.78125 3.339844 C 25.851562 3.367188 25.921875 3.398438 25.992188 3.429688 C 26.242188 3.550781 26.371094 3.703125 26.523438 3.929688 C 26.601562 4.039062 26.679688 4.128906 26.777344 4.21875 C 26.804688 4.148438 26.835938 4.078125 26.867188 4.007812 C 27.007812 3.722656 27.210938 3.558594 27.480469 3.398438 C 27.539062 3.378906 27.597656 3.359375 27.65625 3.339844 C 27.65625 3.300781 27.65625 3.261719 27.65625 3.222656 C 27.585938 3.195312 27.515625 3.164062 27.445312 3.132812 C 27.195312 3.011719 27.066406 2.859375 26.914062 2.632812 C 26.835938 2.523438 26.757812 2.433594 26.660156 2.34375 Z M 26.660156 2.34375 "/>
<path style=" stroke:none;fill-rule:nonzero;fill:rgb(100%,0%,17.647059%);fill-opacity:1;" d="M 8.847656 26.25 C 9.078125 26.425781 9.125 26.585938 9.175781 26.867188 C 9.183594 26.902344 9.191406 26.941406 9.199219 26.976562 C 9.289062 27.492188 9.332031 28.015625 9.375 28.535156 C 10.339844 28.371094 11.304688 28.199219 12.253906 27.960938 C 12.292969 27.949219 12.328125 27.941406 12.367188 27.929688 C 12.8125 27.820312 13.253906 27.695312 13.691406 27.566406 C 13.734375 27.554688 13.777344 27.539062 13.820312 27.527344 C 14.019531 27.46875 14.21875 27.410156 14.417969 27.347656 C 14.488281 27.324219 14.5625 27.304688 14.632812 27.28125 C 14.695312 27.261719 14.757812 27.242188 14.824219 27.222656 C 15.019531 27.183594 15.15625 27.195312 15.351562 27.246094 C 15.515625 27.398438 15.578125 27.492188 15.617188 27.714844 C 15.574219 27.945312 15.476562 28.054688 15.292969 28.183594 C 15.085938 28.277344 14.875 28.335938 14.660156 28.398438 C 14.59375 28.417969 14.527344 28.4375 14.460938 28.457031 C 10.78125 29.53125 10.78125 29.53125 9.183594 29.550781 C 9.136719 29.550781 9.09375 29.554688 9.042969 29.554688 C 8.707031 29.558594 8.707031 29.558594 8.527344 29.425781 C 8.378906 29.210938 8.363281 29.011719 8.335938 28.757812 C 8.324219 28.648438 8.324219 28.648438 8.3125 28.539062 C 8.304688 28.464844 8.300781 28.390625 8.289062 28.3125 C 8.277344 28.164062 8.261719 28.015625 8.246094 27.867188 C 8.238281 27.800781 8.230469 27.734375 8.226562 27.667969 C 8.203125 27.488281 8.175781 27.308594 8.144531 27.128906 C 8.097656 26.566406 8.097656 26.566406 8.234375 26.328125 C 8.433594 26.222656 8.625 26.191406 8.847656 26.25 Z M 8.847656 26.25 "/>
</g>
</svg>
