<svg xmlns="http://www.w3.org/2000/svg" width="24" height="24" viewBox="0 0 24 24" style="fill: rgba(255, 0, 46, 1);transform: ;msFilter:;">
  <path d="M0 0 C6.46008743 0.10590307 13.21197422 0.2873448 19.4375 2.125 C23.55951307 3.13742426 26.88378826 2.61491201 31 2 C33.74902023 1.61764536 36.49946487 1.24626995 39.25 0.875 C40.29027344 0.72611328 40.29027344 0.72611328 41.3515625 0.57421875 C44.8036276 0.11791129 47.68719671 -0.2124177 51 1 C51 2.98 51 4.96 51 7 C52.32 7 53.64 7 55 7 C55 21.19 55 35.38 55 50 C46.75 49.67 38.5 49.34 30 49 C30 49.99 30 50.98 30 52 C26.7 52 23.4 52 20 52 C20 51.01 20 50.02 20 49 C11.59121098 48.82193153 3.44263047 49.43715797 -5 50 C-5 35.81 -5 21.62 -5 7 C-3.68 7 -2.36 7 -1 7 C-1.020625 6.030625 -1.04125 5.06125 -1.0625 4.0625 C-1 1 -1 1 0 0 Z M2 5 C2 17.21 2 29.42 2 42 C8.93 42.495 8.93 42.495 16 43 C18.33606821 43.65701918 20.67036484 44.32052308 23 45 C26.10615338 44.7602129 26.10615338 44.7602129 29 44 C35.24465583 42.75106883 41.64785943 42.45372433 48 42 C48 29.79 48 17.58 48 5 C35.48348972 6.36994934 35.48348972 6.36994934 23 8 C20.32800158 7.35503487 17.66213244 6.68454834 15 6 C10.71 5.67 6.42 5.34 2 5 Z" transform="scale(0.375) translate(7,5)"/>
  <path d="M0 0 C2.64 0.33 5.28 0.66 8 1 C8 2.32 8 3.64 8 5 C2.25 5.125 2.25 5.125 0 4 C0 2.68 0 1.36 0 0 Z" transform="scale(0.375) translate(12,33)"/>
  <path d="M0 0 C2.64 0.33 5.28 0.66 8 1 C8 2.32 8 3.64 8 5 C5.36 4.67 2.72 4.34 0 4 C0 2.68 0 1.36 0 0 Z" transform="scale(0.375) translate(12,40)"/>
  <path d="M0 0 C2.64 0 5.28 0 8 0 C7.67 1.32 7.34 2.64 7 4 C4.69 4 2.38 4 0 4 C0 2.68 0 1.36 0 0 Z" transform="scale(0.375) translate(44,20)"/>
  <path d="M0 0 C2.64 0 5.28 0 8 0 C8 1.32 8 2.64 8 4 C5.69 4 3.38 4 1 4 C0.67 2.68 0.34 1.36 0 0 Z" transform="scale(0.375) translate(12,20)"/>
  <path d="M0 0 C2.64 0 5.28 0 8 0 C7.67 1.32 7.34 2.64 7 4 C4.69 4 2.38 4 0 4 C0 2.68 0 1.36 0 0 Z" transform="scale(0.375) translate(44,13)"/>
  <path d="M0 0 C2.64 0 5.28 0 8 0 C8 1.32 8 2.64 8 4 C5.69 4 3.38 4 1 4 C0.67 2.68 0.34 1.36 0 0 Z" transform="scale(0.375) translate(12,13)"/>
  <path d="M0 0 C2.64 0 5.28 0 8 0 C8 0.99 8 1.98 8 3 C5.29120665 4.35439668 2.99066732 4.06501451 0 4 C0 2.68 0 1.36 0 0 Z" transform="scale(0.375) translate(44,27)"/>
  <path d="M0 0 C2.64 0 5.28 0 8 0 C8 1.32 8 2.64 8 4 C2.25 4.125 2.25 4.125 0 3 C0 2.01 0 1.02 0 0 Z" transform="scale(0.375) translate(12,27)"/>
  <path d="M0 0 C1.32 0.33 2.64 0.66 4 1 C3.67 1.99 3.34 2.98 3 4 C2.01 4 1.02 4 0 4 C0 2.68 0 1.36 0 0 Z" transform="scale(0.375) translate(22,14)"/>
  <path d="M0 0 C0.99 0.33 1.98 0.66 3 1 C3 2.32 3 3.64 3 5 C2.01 4.67 1.02 4.34 0 4 C0 2.68 0 1.36 0 0 Z" transform="scale(0.375) translate(22,41)"/>
  <path d="M0 0 C0.99 0 1.98 0 3 0 C3 1.32 3 2.64 3 4 C2.01 4 1.02 4 0 4 C0 2.68 0 1.36 0 0 Z" transform="scale(0.375) translate(39,28)"/>
  <path d="M0 0 C0.99 0 1.98 0 3 0 C3 1.32 3 2.64 3 4 C2.01 4 1.02 4 0 4 C0 2.68 0 1.36 0 0 Z" transform="scale(0.375) translate(22,28)"/>
  <path d="M0 0 C0.99 0 1.98 0 3 0 C3 1.32 3 2.64 3 4 C2.01 4 1.02 4 0 4 C0 2.68 0 1.36 0 0 Z" transform="scale(0.375) translate(39,21)"/>
  <path d="M0 0 C0.99 0 1.98 0 3 0 C3 1.32 3 2.64 3 4 C2.01 4 1.02 4 0 4 C0 2.68 0 1.36 0 0 Z" transform="scale(0.375) translate(22,21)"/>
  <path d="M0 0 C0.99 0 1.98 0 3 0 C3 1.32 3 2.64 3 4 C2.01 3.67 1.02 3.34 0 3 C0 2.01 0 1.02 0 0 Z" transform="scale(0.375) translate(22,35)"/>
  <path d="M0 0 C0.99 0.495 0.99 0.495 2 1 C2 1.99 2 2.98 2 4 C1.34 4 0.68 4 0 4 C0 2.68 0 1.36 0 0 Z" transform="scale(0.375) translate(27,43)"/>
  <path d="M0 0 C0.99 0.495 0.99 0.495 2 1 C2 1.99 2 2.98 2 4 C1.34 4 0.68 4 0 4 C0 2.68 0 1.36 0 0 Z" transform="scale(0.375) translate(27,36)"/>
  <path d="M0 0 C0.33 1.32 0.66 2.64 1 4 C0.34 4 -0.32 4 -1 4 C-0.67 2.68 -0.34 1.36 0 0 Z" transform="scale(0.375) translate(36,29)"/>
  <path d="M0 0 C0.99 0.495 0.99 0.495 2 1 C2 1.99 2 2.98 2 4 C1.34 4 0.68 4 0 4 C0 2.68 0 1.36 0 0 Z" transform="scale(0.375) translate(27,29)"/>
  <path d="M0 0 C0.33 1.32 0.66 2.64 1 4 C0.34 4 -0.32 4 -1 4 C-0.67 2.68 -0.34 1.36 0 0 Z" transform="scale(0.375) translate(36,22)"/>
  <path d="M0 0 C0.99 0.495 0.99 0.495 2 1 C2 1.99 2 2.98 2 4 C1.34 4 0.68 4 0 4 C0 2.68 0 1.36 0 0 Z" transform="scale(0.375) translate(27,22)"/>
  <path d="M0 0 C0.33 1.32 0.66 2.64 1 4 C0.34 4 -0.32 4 -1 4 C-0.67 2.68 -0.34 1.36 0 0 Z" transform="scale(0.375) translate(36,15)"/>
  <path d="M0 0 C0.99 0.495 0.99 0.495 2 1 C2 1.99 2 2.98 2 4 C1.34 4 0.68 4 0 4 C0 2.68 0 1.36 0 0 Z" transform="scale(0.375) translate(27,15)"/>
</svg>
