<?xml version="1.0" encoding="UTF-8"?>
<svg version="1.1" xmlns="http://www.w3.org/2000/svg" viewBox="0 0 50 50" width="24" height="24">
<path d="M0 0 C1.670625 0.061875 1.670625 0.061875 3.375 0.125 C3.375 0.785 3.375 1.445 3.375 2.125 C4.035 2.125 4.695 2.125 5.375 2.125 C5.375 1.465 5.375 0.805 5.375 0.125 C11.645 0.125 17.915 0.125 24.375 0.125 C24.375 2.105 24.375 4.085 24.375 6.125 C19.755 6.125 15.135 6.125 10.375 6.125 C10.38660156 8.13464844 10.39820312 10.14429688 10.41015625 12.21484375 C10.4171074 14.15421424 10.42402396 16.09358503 10.42993164 18.03295898 C10.43497057 19.38420386 10.44180177 20.73544326 10.45043945 22.08666992 C10.46252419 24.02520434 10.46769828 25.963778 10.47265625 27.90234375 C10.48051147 29.65405884 10.48051147 29.65405884 10.48852539 31.44116211 C10.375 34.125 10.375 34.125 9.375 35.125 C7.71070949 35.22323937 6.04218069 35.25473631 4.375 35.25 C3.01375 35.25386719 3.01375 35.25386719 1.625 35.2578125 C-0.625 35.125 -0.625 35.125 -1.625 34.125 C-1.69758946 31.93860547 -1.70873783 29.74999611 -1.6875 27.5625 C-1.67847656 26.36496094 -1.66945313 25.16742188 -1.66015625 23.93359375 C-1.64855469 23.00675781 -1.63695312 22.07992187 -1.625 21.125 C-2.945 21.125 -4.265 21.125 -5.625 21.125 C-5.68291844 18.00007749 -5.71856746 14.87529234 -5.75 11.75 C-5.76675781 10.86054688 -5.78351562 9.97109375 -5.80078125 9.0546875 C-5.80722656 8.20390625 -5.81367187 7.353125 -5.8203125 6.4765625 C-5.83078613 5.69104004 -5.84125977 4.90551758 -5.85205078 4.09619141 C-5.39963225 0.16842017 -3.67413221 0.12669421 0 0 Z M8.375 2.125 C8.375 2.785 8.375 3.445 8.375 4.125 C12.665 4.125 16.955 4.125 21.375 4.125 C21.375 3.465 21.375 2.805 21.375 2.125 C17.085 2.125 12.795 2.125 8.375 2.125 Z M-2.625 3.125 C-3.72006492 6.41019475 -3.72460608 8.86163415 -3.6875 12.3125 C-3.67847656 13.39917969 -3.66945312 14.48585938 -3.66015625 15.60546875 C-3.64855469 16.43691406 -3.63695312 17.26835937 -3.625 18.125 C-2.965 18.125 -2.305 18.125 -1.625 18.125 C-1.625 14.495 -1.625 10.865 -1.625 7.125 C-0.965 7.125 -0.305 7.125 0.375 7.125 C0.375 15.045 0.375 22.965 0.375 31.125 C1.365 31.125 2.355 31.125 3.375 31.125 C3.375 27.495 3.375 23.865 3.375 20.125 C4.035 20.125 4.695 20.125 5.375 20.125 C5.375 23.755 5.375 27.385 5.375 31.125 C6.365 31.125 7.355 31.125 8.375 31.125 C8.375 22.215 8.375 13.305 8.375 4.125 C7.715 5.445 7.055 6.765 6.375 8.125 C5.055 8.125 3.735 8.125 2.375 8.125 C1.715 6.475 1.055 4.825 0.375 3.125 C-0.615 3.125 -1.605 3.125 -2.625 3.125 Z " fill="#FF002E" transform="translate(7.625,12.875)"/>
<path d="M0 0 C0.66 0 1.32 0 2 0 C2 0.66 2 1.32 2 2 C7.61 2 13.22 2 19 2 C19 11.9 19 21.8 19 32 C14.05 32.33 9.1 32.66 4 33 C4.66 34.27875 5.32 35.5575 6 36.875 C8 40.75 8 40.75 8 43 C7.01 43 6.02 43 5 43 C2 37.25 2 37.25 2 35 C1.34 35 0.68 35 0 35 C-0.309375 35.94875 -0.61875 36.8975 -0.9375 37.875 C-2 41 -2 41 -3 43 C-3.99 43 -4.98 43 -6 43 C-4.8905928 39.51329166 -3.73662334 36.22515763 -2 33 C-4.31 32.67 -6.62 32.34 -9 32 C-9 31.34 -9 30.68 -9 30 C-0.42 30 8.16 30 17 30 C17 21.42 17 12.84 17 4 C8.09 4 -0.82 4 -10 4 C-10 3.34 -10 2.68 -10 2 C-6.7 2 -3.4 2 0 2 C0 1.34 0 0.68 0 0 Z " fill="#FF002D" transform="translate(29,2)"/>
<path d="M0 0 C3 0.25 3 0.25 5 2.25 C5.25 5.25 5.25 5.25 5 8.25 C3 10.25 3 10.25 0 10.5 C-3 10.25 -3 10.25 -5 8.25 C-5.25 5.25 -5.25 5.25 -5 2.25 C-3 0.25 -3 0.25 0 0 Z M-2 3.25 C-2 4.57 -2 5.89 -2 7.25 C-0.68 7.25 0.64 7.25 2 7.25 C2 5.93 2 4.61 2 3.25 C0.68 3.25 -0.64 3.25 -2 3.25 Z " fill="#FF002E" transform="translate(12,1.75)"/>
</svg>
