<?xml version="1.0" encoding="UTF-8"?>
<svg version="1.1" xmlns="http://www.w3.org/2000/svg" viewBox="0 0 50 50" width="24" height="24">
<path d="M0 0 C0.87076172 0.38736328 1.74152344 0.77472656 2.63867188 1.17382812 C3.87907227 1.75874023 3.87907227 1.75874023 5.14453125 2.35546875 C5.89710205 2.70633545 6.64967285 3.05720215 7.42504883 3.41870117 C9.1875 4.8125 9.1875 4.8125 9.94018555 7.46606445 C10.02179932 8.24038818 10.10341309 9.01471191 10.1875 9.8125 C9.1975 9.8125 8.2075 9.8125 7.1875 9.8125 C7.1875 10.8025 7.1875 11.7925 7.1875 12.8125 C6.5275 12.8125 5.8675 12.8125 5.1875 12.8125 C5.1875 18.7525 5.1875 24.6925 5.1875 30.8125 C5.8475 30.8125 6.5075 30.8125 7.1875 30.8125 C7.1875 32.1325 7.1875 33.4525 7.1875 34.8125 C8.1775 34.8125 9.1675 34.8125 10.1875 34.8125 C10.1875 36.7925 10.1875 38.7725 10.1875 40.8125 C-4.9925 40.8125 -20.1725 40.8125 -35.8125 40.8125 C-35.8125 38.8325 -35.8125 36.8525 -35.8125 34.8125 C-34.8225 34.8125 -33.8325 34.8125 -32.8125 34.8125 C-32.8125 33.4925 -32.8125 32.1725 -32.8125 30.8125 C-32.1525 30.8125 -31.4925 30.8125 -30.8125 30.8125 C-30.8125 24.8725 -30.8125 18.9325 -30.8125 12.8125 C-31.4725 12.8125 -32.1325 12.8125 -32.8125 12.8125 C-32.8125 11.8225 -32.8125 10.8325 -32.8125 9.8125 C-33.8025 9.8125 -34.7925 9.8125 -35.8125 9.8125 C-35.56518555 7.46606445 -35.56518555 7.46606445 -34.8125 4.8125 C-33.05004883 3.41870117 -33.05004883 3.41870117 -30.76953125 2.35546875 C-29.94259766 1.96552734 -29.11566406 1.57558594 -28.26367188 1.17382812 C-27.39291016 0.78646484 -26.52214844 0.39910156 -25.625 0 C-24.34786133 -0.61004883 -24.34786133 -0.61004883 -23.04492188 -1.23242188 C-13.89925867 -5.44098306 -8.87407926 -4.23886753 0 0 Z M-18.04296875 0.5625 C-18.84541016 0.9234375 -19.64785156 1.284375 -20.47460938 1.65625 C-21.30798828 2.0378125 -22.14136719 2.419375 -23 2.8125 C-23.84498047 3.1940625 -24.68996094 3.575625 -25.56054688 3.96875 C-27.64684073 4.91170767 -29.73064908 5.85978319 -31.8125 6.8125 C-31.8125 7.1425 -31.8125 7.4725 -31.8125 7.8125 C-19.2725 7.8125 -6.7325 7.8125 6.1875 7.8125 C2.9704061 5.66777073 -0.36736014 3.92418935 -3.8125 2.1875 C-4.4415625 1.86265625 -5.070625 1.5378125 -5.71875 1.203125 C-10.6265554 -1.27157348 -13.07741417 -1.69136875 -18.04296875 0.5625 Z M-29.8125 9.8125 C-29.8125 10.1425 -29.8125 10.4725 -29.8125 10.8125 C-18.5925 10.8125 -7.3725 10.8125 4.1875 10.8125 C4.1875 10.4825 4.1875 10.1525 4.1875 9.8125 C-7.0325 9.8125 -18.2525 9.8125 -29.8125 9.8125 Z M-28.8125 12.8125 C-28.8125 18.7525 -28.8125 24.6925 -28.8125 30.8125 C-28.1525 30.8125 -27.4925 30.8125 -26.8125 30.8125 C-26.8125 24.8725 -26.8125 18.9325 -26.8125 12.8125 C-27.4725 12.8125 -28.1325 12.8125 -28.8125 12.8125 Z M-24.8125 12.8125 C-24.8125 18.7525 -24.8125 24.6925 -24.8125 30.8125 C-23.4925 30.8125 -22.1725 30.8125 -20.8125 30.8125 C-20.8125 24.8725 -20.8125 18.9325 -20.8125 12.8125 C-22.1325 12.8125 -23.4525 12.8125 -24.8125 12.8125 Z M-18.8125 12.8125 C-18.8125 18.7525 -18.8125 24.6925 -18.8125 30.8125 C-18.1525 30.8125 -17.4925 30.8125 -16.8125 30.8125 C-16.8125 24.8725 -16.8125 18.9325 -16.8125 12.8125 C-17.4725 12.8125 -18.1325 12.8125 -18.8125 12.8125 Z M-14.8125 12.8125 C-14.8125 18.7525 -14.8125 24.6925 -14.8125 30.8125 C-13.4925 30.8125 -12.1725 30.8125 -10.8125 30.8125 C-10.8125 24.8725 -10.8125 18.9325 -10.8125 12.8125 C-12.1325 12.8125 -13.4525 12.8125 -14.8125 12.8125 Z M-8.8125 12.8125 C-8.8125 18.7525 -8.8125 24.6925 -8.8125 30.8125 C-8.1525 30.8125 -7.4925 30.8125 -6.8125 30.8125 C-6.8125 24.8725 -6.8125 18.9325 -6.8125 12.8125 C-7.4725 12.8125 -8.1325 12.8125 -8.8125 12.8125 Z M-4.8125 12.8125 C-4.8125 18.7525 -4.8125 24.6925 -4.8125 30.8125 C-3.4925 30.8125 -2.1725 30.8125 -0.8125 30.8125 C-0.8125 24.8725 -0.8125 18.9325 -0.8125 12.8125 C-2.1325 12.8125 -3.4525 12.8125 -4.8125 12.8125 Z M1.1875 12.8125 C1.1875 18.7525 1.1875 24.6925 1.1875 30.8125 C1.8475 30.8125 2.5075 30.8125 3.1875 30.8125 C3.1875 24.8725 3.1875 18.9325 3.1875 12.8125 C2.5275 12.8125 1.8675 12.8125 1.1875 12.8125 Z M-29.8125 32.8125 C-30.1425 33.4725 -30.4725 34.1325 -30.8125 34.8125 C-18.9325 34.8125 -7.0525 34.8125 5.1875 34.8125 C4.6925 33.8225 4.6925 33.8225 4.1875 32.8125 C-7.0325 32.8125 -18.2525 32.8125 -29.8125 32.8125 Z M-32.8125 36.8125 C-33.1425 37.4725 -33.4725 38.1325 -33.8125 38.8125 C-19.9525 38.8125 -6.0925 38.8125 8.1875 38.8125 C7.6925 37.8225 7.6925 37.8225 7.1875 36.8125 C-6.0125 36.8125 -19.2125 36.8125 -32.8125 36.8125 Z " fill="#FF002D" transform="translate(37.8125,6.1875)"/>
</svg>
