<?xml version="1.0" encoding="UTF-8"?>
<svg xmlns="http://www.w3.org/2000/svg" xmlns:xlink="http://www.w3.org/1999/xlink" width="30px" height="30px" viewBox="0 0 30 30" version="1.1">
<g id="surface1">
<path style=" stroke:none;fill-rule:nonzero;fill:rgb(100%,0%,17.647059%);fill-opacity:1;" d="M 6.789062 12.480469 C 6.933594 12.59375 7.070312 12.710938 7.207031 12.832031 C 7.242188 12.863281 7.277344 12.894531 7.316406 12.925781 C 8.007812 13.554688 8.503906 14.574219 8.566406 15.507812 C 8.566406 15.675781 8.566406 15.847656 8.566406 16.019531 C 8.566406 16.078125 8.566406 16.140625 8.566406 16.207031 C 8.566406 16.402344 8.5625 16.59375 8.5625 16.789062 C 8.5625 16.925781 8.5625 17.058594 8.558594 17.191406 C 8.558594 17.515625 8.558594 17.839844 8.554688 18.164062 C 8.609375 18.164062 8.664062 18.164062 8.722656 18.164062 C 10.0625 18.15625 11.402344 18.15625 12.742188 18.152344 C 13.390625 18.152344 14.039062 18.148438 14.683594 18.144531 C 15.25 18.144531 15.816406 18.140625 16.378906 18.140625 C 16.679688 18.140625 16.976562 18.140625 17.277344 18.140625 C 17.558594 18.136719 17.839844 18.136719 18.121094 18.136719 C 18.226562 18.136719 18.328125 18.136719 18.433594 18.136719 C 19.152344 18.128906 19.738281 18.175781 20.289062 18.691406 C 20.675781 19.132812 20.765625 19.5625 20.757812 20.132812 C 20.71875 20.644531 20.480469 21.050781 20.097656 21.386719 C 19.691406 21.660156 19.371094 21.746094 18.886719 21.746094 C 18.839844 21.746094 18.796875 21.746094 18.75 21.746094 C 18.597656 21.75 18.445312 21.75 18.292969 21.75 C 18.183594 21.75 18.074219 21.75 17.964844 21.75 C 17.605469 21.75 17.246094 21.75 16.886719 21.753906 C 16.761719 21.753906 16.636719 21.753906 16.515625 21.753906 C 15.933594 21.753906 15.351562 21.753906 14.769531 21.753906 C 14.097656 21.757812 13.429688 21.757812 12.757812 21.761719 C 12.238281 21.761719 11.71875 21.761719 11.199219 21.761719 C 10.890625 21.761719 10.582031 21.761719 10.273438 21.765625 C 9.980469 21.765625 9.6875 21.765625 9.398438 21.765625 C 9.289062 21.765625 9.183594 21.765625 9.078125 21.765625 C 7.851562 21.777344 7.851562 21.777344 7.347656 21.332031 C 7.289062 21.265625 7.226562 21.203125 7.167969 21.136719 C 7.132812 21.105469 7.101562 21.070312 7.066406 21.035156 C 6.875 20.832031 6.6875 20.621094 6.503906 20.40625 C 6.332031 20.210938 6.15625 20.023438 5.976562 19.835938 C 5.546875 19.375 5.546875 19.375 5.359375 19.160156 C 5.128906 18.890625 4.886719 18.636719 4.644531 18.378906 C 4.484375 18.207031 4.328125 18.039062 4.175781 17.863281 C 4.105469 17.78125 4.105469 17.78125 4.035156 17.703125 C 3.996094 17.65625 3.957031 17.609375 3.917969 17.5625 C 3.800781 17.453125 3.734375 17.417969 3.574219 17.402344 C 3.515625 17.429688 3.515625 17.429688 3.457031 17.460938 C 3.429688 17.59375 3.429688 17.59375 3.457031 17.753906 C 3.558594 17.882812 3.652344 17.992188 3.769531 18.109375 C 3.832031 18.175781 3.898438 18.246094 3.960938 18.3125 C 3.996094 18.347656 4.027344 18.378906 4.0625 18.414062 C 4.210938 18.566406 4.351562 18.722656 4.492188 18.878906 C 4.519531 18.90625 4.546875 18.9375 4.574219 18.964844 C 4.738281 19.144531 4.902344 19.328125 5.066406 19.507812 C 5.265625 19.734375 5.472656 19.957031 5.675781 20.179688 C 5.707031 20.210938 5.734375 20.242188 5.765625 20.273438 C 5.824219 20.339844 5.886719 20.40625 5.945312 20.46875 C 6.089844 20.625 6.234375 20.78125 6.378906 20.941406 C 6.40625 20.96875 6.433594 21 6.460938 21.027344 C 6.601562 21.179688 6.734375 21.335938 6.863281 21.496094 C 7.3125 22.023438 7.898438 22.15625 8.554688 22.265625 C 8.554688 23.890625 8.554688 25.515625 8.554688 27.1875 C 5.730469 27.1875 2.910156 27.1875 0 27.1875 C -0.0078125 24.175781 -0.0078125 24.175781 -0.0078125 22.910156 C -0.0078125 22.039062 -0.0117188 21.164062 -0.0117188 20.292969 C -0.015625 19.660156 -0.015625 19.023438 -0.015625 18.386719 C -0.015625 18.050781 -0.015625 17.714844 -0.0195312 17.378906 C -0.0195312 17.0625 -0.0195312 16.746094 -0.0195312 16.429688 C -0.0195312 16.3125 -0.0195312 16.195312 -0.0195312 16.082031 C -0.0273438 14.753906 0.269531 13.742188 1.230469 12.773438 C 2.726562 11.390625 5.144531 11.332031 6.789062 12.480469 Z M 6.789062 12.480469 "/>
<path style=" stroke:none;fill-rule:nonzero;fill:rgb(100%,0%,17.647059%);fill-opacity:1;" d="M 11.015625 3.867188 C 11.054688 3.894531 11.089844 3.925781 11.128906 3.953125 C 11.914062 4.578125 12.402344 5.613281 12.574219 6.585938 C 12.707031 7.773438 12.5 8.964844 11.773438 9.9375 C 10.980469 10.925781 9.996094 11.566406 8.726562 11.761719 C 7.3125 11.851562 6.140625 11.527344 5.0625 10.589844 C 4.261719 9.839844 3.714844 8.796875 3.671875 7.6875 C 3.652344 6.367188 3.914062 5.191406 4.855469 4.21875 C 6.519531 2.566406 9.183594 2.300781 11.015625 3.867188 Z M 11.015625 3.867188 "/>
<path style=" stroke:none;fill-rule:nonzero;fill:rgb(100%,0%,17.647059%);fill-opacity:1;" d="M 9.921875 24.308594 C 10.019531 24.308594 10.019531 24.308594 10.117188 24.308594 C 10.191406 24.308594 10.261719 24.308594 10.335938 24.308594 C 10.449219 24.308594 10.449219 24.308594 10.566406 24.308594 C 10.777344 24.308594 10.988281 24.308594 11.199219 24.308594 C 11.429688 24.308594 11.65625 24.308594 11.882812 24.308594 C 12.277344 24.308594 12.671875 24.308594 13.066406 24.308594 C 13.636719 24.3125 14.210938 24.3125 14.78125 24.3125 C 15.707031 24.3125 16.632812 24.3125 17.558594 24.3125 C 18.457031 24.3125 19.359375 24.3125 20.257812 24.3125 C 20.339844 24.3125 20.339844 24.3125 20.425781 24.3125 C 20.703125 24.3125 20.980469 24.3125 21.257812 24.3125 C 23.566406 24.3125 25.875 24.316406 28.183594 24.316406 C 28.183594 25.03125 28.183594 25.746094 28.183594 26.484375 C 25.824219 26.488281 23.464844 26.492188 21.101562 26.492188 C 20.824219 26.492188 20.546875 26.492188 20.265625 26.492188 C 20.183594 26.492188 20.183594 26.492188 20.097656 26.496094 C 19.199219 26.496094 18.300781 26.496094 17.402344 26.496094 C 16.484375 26.5 15.5625 26.5 14.640625 26.5 C 14.070312 26.5 13.503906 26.5 12.933594 26.503906 C 12.542969 26.503906 12.152344 26.503906 11.761719 26.503906 C 11.539062 26.503906 11.3125 26.503906 11.089844 26.503906 C 10.84375 26.507812 10.601562 26.507812 10.355469 26.503906 C 10.285156 26.507812 10.214844 26.507812 10.140625 26.507812 C 9.539062 26.503906 9.539062 26.503906 9.257812 26.308594 C 8.988281 26.015625 8.953125 25.800781 8.949219 25.410156 C 8.949219 25.335938 8.945312 25.257812 8.945312 25.179688 C 8.972656 24.875 9.058594 24.683594 9.289062 24.472656 C 9.503906 24.328125 9.664062 24.308594 9.921875 24.308594 Z M 9.921875 24.308594 "/>
<path style=" stroke:none;fill-rule:nonzero;fill:rgb(100%,0%,17.647059%);fill-opacity:1;" d="M 29.671875 11.933594 C 29.859375 12.101562 29.980469 12.21875 30.015625 12.476562 C 30.035156 12.960938 29.878906 13.378906 29.722656 13.828125 C 29.695312 13.914062 29.664062 14 29.636719 14.085938 C 29.558594 14.3125 29.480469 14.539062 29.402344 14.765625 C 29.320312 15.003906 29.238281 15.242188 29.15625 15.480469 C 28.96875 16.023438 28.78125 16.566406 28.59375 17.109375 C 28.570312 17.175781 28.546875 17.242188 28.523438 17.3125 C 28.363281 17.769531 28.207031 18.226562 28.042969 18.683594 C 27.835938 19.269531 27.636719 19.859375 27.441406 20.449219 C 27.398438 20.574219 27.355469 20.699219 27.316406 20.824219 C 27.285156 20.910156 27.257812 20.992188 27.230469 21.078125 C 27.214844 21.117188 27.203125 21.160156 27.1875 21.203125 C 27.105469 21.449219 27.023438 21.695312 26.941406 21.945312 C 26.902344 22.058594 26.863281 22.175781 26.824219 22.292969 C 26.777344 22.4375 26.730469 22.582031 26.683594 22.726562 C 26.40625 23.539062 26.40625 23.539062 26.078125 23.738281 C 25.949219 23.792969 25.863281 23.804688 25.722656 23.804688 C 25.675781 23.804688 25.628906 23.804688 25.582031 23.804688 C 25.53125 23.804688 25.480469 23.804688 25.429688 23.804688 C 25.375 23.804688 25.324219 23.804688 25.265625 23.804688 C 25.085938 23.804688 24.90625 23.804688 24.726562 23.804688 C 24.59375 23.804688 24.464844 23.804688 24.335938 23.804688 C 23.984375 23.808594 23.632812 23.808594 23.28125 23.808594 C 22.988281 23.808594 22.695312 23.808594 22.398438 23.808594 C 21.667969 23.808594 20.9375 23.808594 20.203125 23.808594 C 19.566406 23.808594 18.933594 23.808594 18.296875 23.808594 C 17.644531 23.808594 16.992188 23.8125 16.339844 23.808594 C 15.972656 23.808594 15.605469 23.808594 15.238281 23.8125 C 14.894531 23.8125 14.550781 23.8125 14.203125 23.8125 C 14.078125 23.8125 13.953125 23.8125 13.824219 23.8125 C 13.652344 23.8125 13.480469 23.8125 13.308594 23.8125 C 13.257812 23.8125 13.207031 23.8125 13.15625 23.8125 C 12.882812 23.808594 12.703125 23.789062 12.480469 23.613281 C 12.300781 23.390625 12.226562 23.15625 12.246094 22.871094 C 12.285156 22.632812 12.367188 22.492188 12.539062 22.324219 C 12.84375 22.121094 13.144531 22.140625 13.5 22.140625 C 13.550781 22.140625 13.601562 22.136719 13.652344 22.136719 C 13.816406 22.136719 13.984375 22.136719 14.148438 22.136719 C 14.269531 22.136719 14.386719 22.136719 14.507812 22.132812 C 14.828125 22.132812 15.152344 22.132812 15.476562 22.128906 C 15.8125 22.128906 16.148438 22.128906 16.488281 22.125 C 17.125 22.125 17.765625 22.121094 18.40625 22.117188 C 19.132812 22.113281 19.859375 22.113281 20.585938 22.109375 C 22.085938 22.101562 23.582031 22.097656 25.078125 22.089844 C 25.09375 22.046875 25.109375 22 25.125 21.953125 C 25.269531 21.523438 25.414062 21.09375 25.558594 20.667969 C 25.632812 20.445312 25.707031 20.226562 25.78125 20.003906 C 26.121094 19 26.460938 18 26.8125 17 C 26.839844 16.925781 26.839844 16.925781 26.867188 16.847656 C 26.886719 16.796875 26.902344 16.746094 26.921875 16.691406 C 27.125 16.121094 27.320312 15.546875 27.511719 14.972656 C 27.550781 14.851562 27.589844 14.734375 27.628906 14.613281 C 27.644531 14.574219 27.65625 14.535156 27.667969 14.492188 C 27.695312 14.414062 27.722656 14.332031 27.75 14.253906 C 27.828125 14.019531 27.90625 13.785156 27.984375 13.550781 C 28.042969 13.367188 28.101562 13.1875 28.164062 13.007812 C 28.183594 12.941406 28.207031 12.875 28.230469 12.808594 C 28.359375 12.421875 28.480469 12.105469 28.832031 11.875 C 29.125 11.777344 29.394531 11.796875 29.671875 11.933594 Z M 29.671875 11.933594 "/>
</g>
</svg>
